<svg id="Слой_1" data-name="Слой 1" xmlns="http://www.w3.org/2000/svg" viewBox="0 0 18.82 18.72"><defs><style>.cls-1{fill:none;stroke:#6698d0;stroke-miterlimit:10;stroke-width:0.5px;}</style></defs><title>note</title><polyline class="cls-1" points="14.48 7.97 14.48 0.25 0.25 0.25 0.25 18.47 14.48 18.47 14.48 13.39 14.48 12.8"/><polyline class="cls-1" points="12.81 9.66 12.81 2.09 1.92 2.09 1.92 16.63 12.81 16.63 12.81 14.49"/><line class="cls-1" x1="3.66" y1="4.55" x2="11.13" y2="4.55"/><line class="cls-1" x1="3.66" y1="7.22" x2="11.13" y2="7.22"/><line class="cls-1" x1="3.66" y1="9.9" x2="11.13" y2="9.9"/><polygon class="cls-1" points="16.09 6.35 14.48 7.97 13.28 9.19 11.83 10.66 9.13 13.39 9.13 13.39 8.25 16.7 11.52 15.82 11.51 15.81 11.83 15.49 13.03 14.28 13.28 14.02 14.48 12.8 18.47 8.76 16.09 6.35"/><polygon class="cls-1" points="9.13 13.39 8.25 16.7 11.52 15.82 9.13 13.39"/></svg>